<?xml version="1.0" encoding="utf-8"?>
<!-- Generator: Adobe Illustrator 23.1.1, SVG Export Plug-In . SVG Version: 6.00 Build 0)  -->
<svg version="1.1" id="Layer_1" xmlns="http://www.w3.org/2000/svg" xmlns:xlink="http://www.w3.org/1999/xlink" x="0px" y="0px"
	 viewBox="0 0 1000 1000" style="enable-background:new 0 0 1000 1000;" xml:space="preserve">
<style type="text/css">
	.st0{fill-rule:evenodd;clip-rule:evenodd;fill:#1A1918;}
	.st1{fill:#E44D26;}
	.st2{fill:#F16529;}
	.st3{fill:#EBEBEB;}
	.st4{fill:#FFFFFF;}
</style>
<g>
	<path class="st0" d="M2219.79,200.46"/>
</g>
<path class="st1" d="M930.08,12.25L851.72,890.1l-352.24,97.65L148.2,890.24L69.92,12.25H930.08L930.08,12.25z"/>
<path class="st2" d="M500,913.11l284.63-78.91l66.96-750.17H500V913.11z"/>
<path class="st3" d="M347.67,299.4H500V191.72H229.98l2.58,28.89l26.47,296.74H500V409.67H357.51L347.67,299.4z M371.94,571.19
	h-108.1l15.09,169.08L499.5,801.5l0.5-0.13V689.33l-0.47,0.12L379.6,657.07L371.94,571.19L371.94,571.19z"/>
<path class="st4" d="M499.63,517.35h132.6l-12.5,139.66l-120.1,32.42v112.03l220.76-61.18l1.62-18.19l25.31-283.49l2.63-28.92
	H499.63V517.35L499.63,517.35z M499.63,299.14v0.26h260.1l2.16-24.2l4.91-54.59l2.57-28.89H499.63V299.14L499.63,299.14z"/>
</svg>
