<?xml version="1.0" encoding="utf-8"?>
<!-- Generator: Adobe Illustrator 23.1.1, SVG Export Plug-In . SVG Version: 6.00 Build 0)  -->
<svg version="1.1" id="Layer_1" xmlns="http://www.w3.org/2000/svg" xmlns:xlink="http://www.w3.org/1999/xlink" x="0px" y="0px"
	 viewBox="0 0 1000 1000" style="enable-background:new 0 0 1000 1000;" xml:space="preserve">
<style type="text/css">
	.st0{fill-rule:evenodd;clip-rule:evenodd;fill:#1A1918;}
	.st1{fill-rule:evenodd;clip-rule:evenodd;fill:#21609B;}
</style>
<g>
	<path class="st0" d="M4469.21,677.29"/>
	<g>
		<path class="st1" d="M891.83,710.35l-3.83,9.92C822.81,847.23,707.28,925.12,542.5,928.55c-77.03,1.59-150.43-18.18-198.38-39.67
			c-103.47-46.49-190.51-132.71-238.04-224.83C37.9,532,25.6,348.31,167.37,211.11c2.19,0-17.2,29.75-15.01,29.75l-3.9,12.7
			C46.3,573.39,361.05,847.49,667.01,816.14C740.54,808.61,834.31,768.34,891.83,710.35"/>
		<path class="st1" d="M706.68,578.1c76.98,0.52,157.38-35.45,204.99-85.96c-41.66,105.74-162.27,173.7-324.01,152.09
			c-135.43-18.12-264.44-154.4-277.73-290.95c-9.72-99.38,24.92-158.69,81.99-230.64c-19.83,37.63-27.25,66.65-29.09,85.16
			C341.16,422.76,534.57,576.96,706.68,578.1"/>
		<path class="st1" d="M903.94,311.08c-11.96,27.45-80.86,79.28-111.29,85.76c-120.48,25.67-197.64-31.46-238.06-96.48
			c-6.01-9.71-17.11-36.22-19.1-42.97c-15.68-53.3-8.47-133.91,38.29-175.63c-14.09,39.68-16.14,85.76-8.73,115.72
			c4.49,18.11,18.18,49.74,31.87,69.63c24.92,36.23,40.72,45.04,72.73,64.28c14.42,8.66,29.88,15.61,36.57,17.51
			C736.58,357.84,800.66,381.37,903.94,311.08"/>
	</g>
</g>
</svg>
