<?xml version="1.0" encoding="utf-8"?>
<!-- Generator: Adobe Illustrator 23.1.1, SVG Export Plug-In . SVG Version: 6.00 Build 0)  -->
<svg version="1.1" id="Layer_1" xmlns="http://www.w3.org/2000/svg" xmlns:xlink="http://www.w3.org/1999/xlink" x="0px" y="0px"
	 viewBox="0 0 1000 1000" style="enable-background:new 0 0 1000 1000;" xml:space="preserve">
<style type="text/css">
	.st0{fill-rule:evenodd;clip-rule:evenodd;fill:#1A1918;}
	.st1{fill:#D4B830;}
	.st2{opacity:0.986;fill:#EBEBEB;fill-opacity:0;enable-background:new    ;}
	.st3{opacity:0.986;fill:#EBEBEB;fill-opacity:0.9216;enable-background:new    ;}
	.st4{fill:#FDD83C;}
</style>
<g>
	<path class="st0" d="M2219.79,200.46"/>
</g>
<g id="g5193" transform="translate(4.988 -113.385)">
	<path id="path5113" class="st1" d="M145.52,1002.72L65.84,125.63l858.34,0.33l-79,876.08l-350.83,99.09L145.52,1002.72z
		 M780.57,954.85l66.62-751.22h-351.5l2.68,828.55L780.57,954.85z M462.87,313.77h-85.37l-1,449.59L210.8,718.17l0.33,102.77
		l251.74,67.96L462.87,313.77L462.87,313.77z"/>
	<path id="path5159" class="st2" d="M434.75,880.53c-11.05-3.35-65.61-18.08-121.19-33.14L212.8,820.27v-50.55
		c0-49.55,0-50.55,5.02-48.88c2.68,1,39.5,11.05,81.68,22.76l76.66,21.09l0.67-224.29l0.67-224.29h83.69v285.22
		c0,226.64-0.67,285.22-3.01,285.22C456.51,886.22,445.8,883.54,434.75,880.53L434.75,880.53z"/>
	<path id="path5157" class="st3" d="M211.13,820.94l-0.33-102.77c0,0,105.79,29.79,165.71,45.19l1-449.26h85.37V888.9L211.13,820.94
		L211.13,820.94z"/>
	<path id="path5117" class="st4" d="M495.68,203.3h351.5l-66.62,751.22l-284.89,77.33V203.3z M762.49,828.64l23.1-280.87
		l-170.73,19.08V416.88l182.11-0.67l7.36-102.44l-274.84,1.34l3.68,372.93l166.04-28.46l-2.34,83.02l-167.38,44.52l1.67,101.77
		L762.49,828.64L762.49,828.64z"/>
</g>
</svg>
